<?xml version="1.0" encoding="utf-8"?>
<!-- Generator: Adobe Illustrator 16.0.0, SVG Export Plug-In . SVG Version: 6.00 Build 0)  -->
<!DOCTYPE svg PUBLIC "-//W3C//DTD SVG 1.1//EN" "http://www.w3.org/Graphics/SVG/1.1/DTD/svg11.dtd">
<svg version="1.1" xmlns="http://www.w3.org/2000/svg" xmlns:xlink="http://www.w3.org/1999/xlink" x="0px" y="0px" width="373px"
	 height="105px" viewBox="0 0 373 105" enable-background="new 0 0 373 105" xml:space="preserve">
<g id="Capa_4">
</g>
<g id="Orange_-_Violet">
</g>
<g id="Capa_5">
	<g>
		<rect x="12.491" y="22.827" fill-rule="evenodd" clip-rule="evenodd" fill="#FECB00" width="347.315" height="44.892"/>
		<g>
			<text transform="matrix(1 0 0 1 11.6206 62.8438)" fill="#212121" font-family="'Gotham-Book'" font-size="72.5757">InScope</text>
			<text transform="matrix(1 0 0 1 85.9131 92.8203)" fill="#212121" font-family="'Gotham-Book'" font-size="24.8082">translations</text>
			<g>
				<g>
					<path fill-rule="evenodd" clip-rule="evenodd" fill="#212121" d="M329.594,64.062c-2.211-0.776-4.424-1.552-6.756-2.373
						c0.869-1.428-0.207-1.954-1.143-2.652c-6.469-4.82-9.154-13.1-6.822-20.909c2.223-7.443,9.1-12.854,17.043-13.415
						c7.783-0.551,15.305,3.978,18.58,11.184c5.896,12.965-4.074,27.559-18.383,26.952c-0.793-0.031-1.602,0.415-2.402,0.64
						C329.672,63.679,329.635,63.87,329.594,64.062z M319.018,50.716c3.918,7.84,13.287,11.008,21.102,7.136
						c7.76-3.845,10.949-13.391,7.068-21.15c-3.887-7.768-13.297-10.861-21.162-6.959C318.313,33.567,315.164,42.999,319.018,50.716
						z"/>
					<path fill-rule="evenodd" clip-rule="evenodd" fill="#212121" d="M322.002,63.813c2.461,0.918,4.756,1.774,7.143,2.665
						c-1.789,5.842-3.563,11.81-5.461,17.738c-0.77,2.408-3.355,3.559-5.705,2.78c-2.328-0.77-3.814-3.137-2.967-5.423
						C317.219,75.629,319.639,69.769,322.002,63.813z"/>
					<path fill-rule="evenodd" clip-rule="evenodd" fill="#212121" d="M339.654,32.049c-0.643,0.464-0.994,0.916-1.373,0.94
						c-0.463,0.035-0.953-0.291-1.436-0.45c-6.809-2.22-13.838,1.837-15.33,8.849c-0.068,0.312-0.025,0.677-0.182,0.93
						c-0.23,0.375-0.592,0.67-0.898,1.001c-0.236-0.441-0.719-0.911-0.674-1.317c0.371-3.213,1.744-5.968,4.17-8.118
						c4.055-3.599,8.688-4.523,13.828-2.782C338.281,31.276,338.754,31.589,339.654,32.049z"/>
				</g>
			</g>
		</g>
	</g>
</g>
<g id="lupa">
</g>
</svg>
